<?xml version="1.0" encoding="UTF-8" standalone="no"?>
<svg
   xmlns:dc="http://purl.org/dc/elements/1.1/"
   xmlns:cc="http://creativecommons.org/ns#"
   xmlns:rdf="http://www.w3.org/1999/02/22-rdf-syntax-ns#"
   xmlns:svg="http://www.w3.org/2000/svg"
   xmlns="http://www.w3.org/2000/svg"
   xmlns:sodipodi="http://sodipodi.sourceforge.net/DTD/sodipodi-0.dtd"
   xmlns:inkscape="http://www.inkscape.org/namespaces/inkscape"
   viewBox="0 0 501.40899 511.99981"
   version="1.1"
   id="svg1577"
   sodipodi:docname="img.03.svg"
   width="501.409"
   height="511.99982"
   inkscape:version="1.0.2 (e86c870879, 2021-01-15)">
  <metadata
     id="metadata1583">
    <rdf:RDF>
      <cc:Work
         rdf:about="">
        <dc:format>image/svg+xml</dc:format>
        <dc:type
           rdf:resource="http://purl.org/dc/dcmitype/StillImage" />
        <dc:title></dc:title>
      </cc:Work>
    </rdf:RDF>
  </metadata>
  <defs
     id="defs1581" />
  <sodipodi:namedview
     pagecolor="#ffffff"
     bordercolor="#666666"
     borderopacity="1"
     objecttolerance="10"
     gridtolerance="10"
     guidetolerance="10"
     inkscape:pageopacity="0"
     inkscape:pageshadow="2"
     inkscape:window-width="1920"
     inkscape:window-height="1016"
     id="namedview1579"
     showgrid="false"
     fit-margin-top="0"
     fit-margin-left="0"
     fit-margin-right="0"
     fit-margin-bottom="0"
     inkscape:zoom="1"
     inkscape:cx="250.70699"
     inkscape:cy="256.00708"
     inkscape:window-x="0"
     inkscape:window-y="27"
     inkscape:window-maximized="1"
     inkscape:current-layer="svg1577" />
  <g
     id="g1641"
     transform="matrix(1.7001238,0,0,1.7001238,0,0.02456966)">
    <path
       d="m 264,3.55 0.93,0.94 a 3,3 0 0 0 -1.73,1.75 l -0.94,-0.94 -0.9,-0.9 -2.29,-2.29 a 1.2445883,1.2445883 0 0 1 1.78,-1.74 l 2.29,2.29 z"
       fill="#96b945"
       transform="translate(0,-0.01)"
       id="path1465" />
    <path
       d="m 272.89,14.14 a 1.23,1.23 0 0 1 -1.74,0 L 268.85,11.85 268,11 267,10 a 3,3 0 0 0 1.74,-1.74 l 1.83,1.83 2.3,2.29 a 1.21,1.21 0 0 1 0.02,1.76 z"
       fill="#96b945"
       transform="translate(0,-0.01)"
       id="path1467" />
    <path
       d="m 272.14,131.39 -3.35,3.35 A 1.2303658,1.2303658 0 0 1 267.05,133 l 1.53,-1.53 0.9,-0.89 0.93,-0.93 a 3.1,3.1 0 0 0 1.73,1.74 z"
       fill="#f16251"
       transform="translate(0,-0.01)"
       id="path1469" />
    <path
       d="m 279.49,124 -3.36,3.36 a 3.1,3.1 0 0 0 -1.73,-1.75 l 0.92,-0.92 0.89,-0.9 1.53,-1.53 a 1.2303658,1.2303658 0 0 1 1.74,1.74 z"
       fill="#f16251"
       transform="translate(0,-0.01)"
       id="path1471" />
    <path
       d="m 277.06,126.47 a 4.32,4.32 0 0 0 -1.73,-1.74 4.31,4.31 0 0 0 -5.84,5.84 4.3112788,4.3112788 0 0 0 7.58,-4.11 z m -3.79,5.13 a 3,3 0 0 1 -1.13,-0.21 3.1,3.1 0 0 1 -1.73,-1.75 3,3 0 0 1 -0.21,-1.12 3.07,3.07 0 0 1 3.07,-3.08 3,3 0 0 1 1.13,0.21 3.1,3.1 0 0 1 1.73,1.75 3,3 0 0 1 0.21,1.12 3.07,3.07 0 0 1 -3.07,3.08 z"
       fill="#ffffff"
       transform="translate(0,-0.01)"
       id="path1473" />
    <path
       d="m 278,125.57 a 5.54,5.54 0 0 0 -4.69,-2.59 5.55,5.55 0 0 0 -5.55,5.54 5.4,5.4 0 0 0 0.86,2.95 5.54,5.54 0 0 0 4.69,2.59 5.55,5.55 0 0 0 5.55,-5.54 5.4,5.4 0 0 0 -0.86,-2.95 z m -4.69,6 a 3,3 0 0 1 -1.13,-0.21 3.1,3.1 0 0 1 -1.73,-1.75 3,3 0 0 1 -0.21,-1.12 3.07,3.07 0 0 1 3.07,-3.08 3,3 0 0 1 1.13,0.21 3.1,3.1 0 0 1 1.73,1.75 3,3 0 0 1 0.21,1.12 3.07,3.07 0 0 1 -3.11,3.11 z"
       fill="#f16251"
       transform="translate(0,-0.01)"
       id="path1475" />
    <path
       d="m 81,228.7 0.93,0.93 a 3.1,3.1 0 0 0 -1.75,1.73 l -0.92,-0.92 -0.9,-0.9 -1.58,-1.54 a 1.2303658,1.2303658 0 1 1 1.74,-1.74 l 1.53,1.53 0.89,0.9 z"
       fill="#83cbaa"
       transform="translate(0,-0.01)"
       id="path1477" />
    <path
       d="m 89.22,238.71 a 1.21,1.21 0 0 1 -1.74,0 l -3.36,-3.36 a 3.1,3.1 0 0 0 1.75,-1.73 l 0.92,0.92 0.9,0.89 1.53,1.57 a 1.21,1.21 0 0 1 0,1.71 z"
       fill="#83cbaa"
       transform="translate(0,-0.01)"
       id="path1479" />
    <path
       d="m 83,228.18 a 4.3,4.3 0 0 0 -2,0.52 4.31,4.31 0 1 0 5.85,5.85 4.31,4.31 0 0 0 -3.85,-6.37 z m 1.12,7.17 a 3,3 0 0 1 -1.12,0.21 3.07,3.07 0 0 1 -3.08,-3.07 3,3 0 0 1 0.21,-1.13 3.1,3.1 0 0 1 1.75,-1.73 3,3 0 0 1 1.12,-0.21 3.07,3.07 0 0 1 3.08,3.07 3,3 0 0 1 -0.21,1.13 3.1,3.1 0 0 1 -1.75,1.73 z"
       fill="#ffffff"
       transform="translate(0,-0.01)"
       id="path1481" />
    <path
       d="m 83,226.94 a 5.4,5.4 0 0 0 -3,0.86 5.54,5.54 0 0 0 -2.59,4.69 5.55,5.55 0 0 0 5.59,5.51 5.4,5.4 0 0 0 3,-0.86 5.54,5.54 0 0 0 2.59,-4.69 5.55,5.55 0 0 0 -5.59,-5.51 z m 1.12,8.41 a 3,3 0 0 1 -1.12,0.21 3.07,3.07 0 0 1 -3.08,-3.07 3,3 0 0 1 0.21,-1.13 3.1,3.1 0 0 1 1.75,-1.73 3,3 0 0 1 1.12,-0.21 3.07,3.07 0 0 1 3.08,3.07 3,3 0 0 1 -0.21,1.13 3.1,3.1 0 0 1 -1.75,1.73 z"
       fill="#83cbaa"
       transform="translate(0,-0.01)"
       id="path1483" />
    <path
       d="m 30.04,84.94 -1.22,3.98 1.22,3.98 -3.98,-1.23 -3.97,1.23 1.22,-3.98 -1.22,-3.98 3.97,1.23 z"
       fill="none"
       stroke="#83cbaa"
       stroke-linecap="round"
       stroke-linejoin="round"
       stroke-width="2.47"
       id="path1485" />
    <path
       d="m 225.67,224.79 -4,1.23 -4,-1.23 1.22,4 -1.22,4 4,-1.23 4,1.23 -1.22,-4 z m -2.4,4.34 0.53,1.75 -1.73,-0.54 a 1.29,1.29 0 0 0 -0.73,0 l -1.76,0.54 0.54,-1.75 a 1.26,1.26 0 0 0 0,-0.72 l -0.54,-1.75 1.76,0.54 a 1.29,1.29 0 0 0 0.73,0 l 1.73,-0.54 -0.53,1.75 a 1.26,1.26 0 0 0 0,0.72 z"
       fill="#ffffff"
       transform="translate(0,-0.01)"
       id="path1487" />
    <path
       d="m 225.74,228.77 1.11,-3.62 a 1.24,1.24 0 0 0 -1.55,-1.54 l -3.6,1.12 -3.62,-1.12 a 1.2,1.2 0 0 0 -1.23,0.31 1.22,1.22 0 0 0 -0.31,1.23 l 1.11,3.62 -1.11,3.62 a 1.24,1.24 0 0 0 1.54,1.54 l 3.62,-1.12 3.6,1.12 a 1.19,1.19 0 0 0 0.37,0.06 1.25,1.25 0 0 0 1.18,-1.6 z m -6.16,2.11 0.54,-1.75 a 1.26,1.26 0 0 0 0,-0.72 l -0.54,-1.75 1.76,0.54 a 1.29,1.29 0 0 0 0.73,0 l 1.73,-0.54 -0.53,1.75 a 1.26,1.26 0 0 0 0,0.72 l 0.53,1.75 -1.73,-0.54 a 1.29,1.29 0 0 0 -0.73,0 z"
       fill="#fec656"
       transform="translate(0,-0.01)"
       id="path1489" />
    <path
       d="m 266,3.07 a 4.15,4.15 0 0 0 -3.7,2.23 4.26,4.26 0 0 0 -0.48,2 4.18,4.18 0 0 0 4.18,4.13 4.16,4.16 0 0 0 3.7,-2.22 4.27,4.27 0 0 0 0.48,-2 A 4.18,4.18 0 0 0 266,3.07 Z m 1,6.93 a 2.89,2.89 0 0 1 -1,0.19 3,3 0 0 1 -2.94,-2.95 2.83,2.83 0 0 1 0.18,-1 2.94,2.94 0 0 1 5.7,1 2.88,2.88 0 0 1 -0.18,1 A 3,3 0 0 1 267,10 Z"
       fill="#ffffff"
       transform="translate(0,-0.01)"
       id="path1491" />
    <path
       d="m 266,1.83 a 5.29,5.29 0 0 0 -2.86,0.83 5.17,5.17 0 0 0 -1.74,1.74 5.36,5.36 0 0 0 -0.82,2.85 5.42,5.42 0 0 0 5.42,5.42 5.31,5.31 0 0 0 2.85,-0.82 5.17,5.17 0 0 0 1.74,-1.74 5.26,5.26 0 0 0 0.83,-2.85 A 5.42,5.42 0 0 0 266,1.83 Z m 1,8.17 a 2.89,2.89 0 0 1 -1,0.19 3,3 0 0 1 -2.94,-2.95 2.83,2.83 0 0 1 0.18,-1 2.94,2.94 0 0 1 5.7,1 2.88,2.88 0 0 1 -0.18,1 A 3,3 0 0 1 267,10 Z"
       fill="#96b945"
       transform="translate(0,-0.01)"
       id="path1493" />
    <path
       d="m 8.37,146.23 -3.48,3.48 A 1.23,1.23 0 0 1 3.15,148 l 1.55,-1.55 0.92,-0.92 1,-1 a 1.9,1.9 0 0 0 1.75,1.7 z"
       fill="#fec656"
       transform="translate(0,-0.01)"
       id="path1495" />
    <path
       d="m 13.92,140.69 -1.55,1.55 -0.93,0.93 -1,1 a 1.9,1.9 0 0 0 -1.73,-1.74 l 1,-1 0.93,-0.92 1.54,-1.51 a 1.2303658,1.2303658 0 1 1 1.74,1.74 z"
       fill="#fec656"
       transform="translate(0,-0.01)"
       id="path1497" />
    <path
       d="m 11.44,143.17 a 3.12,3.12 0 0 0 -1.74,-1.75 3,3 0 0 0 -1.17,-0.23 3.15,3.15 0 0 0 -3.14,3.14 3,3 0 0 0 0.23,1.17 3.16,3.16 0 0 0 1.74,1.74 3,3 0 0 0 1.17,0.23 3.15,3.15 0 0 0 3.14,-3.14 3,3 0 0 0 -0.23,-1.16 z m -2.91,3.07 H 8.37 a 1.9,1.9 0 0 1 -1.74,-1.73 1,1 0 0 1 0,-0.17 1.92,1.92 0 0 1 1.91,-1.91 H 8.7 a 1.9,1.9 0 0 1 1.73,1.74 0.86,0.86 0 0 1 0,0.16 1.92,1.92 0 0 1 -1.9,1.91 z"
       fill="#ffffff"
       transform="translate(0,-0.01)"
       id="path1499" />
    <path
       d="m 12.37,142.24 a 4.37,4.37 0 0 0 -8.21,2.09 4.22,4.22 0 0 0 0.54,2.09 4.37,4.37 0 0 0 7.67,-4.18 z m -1.93,2.09 a 1.92,1.92 0 0 1 -1.91,1.91 H 8.37 a 1.9,1.9 0 0 1 -1.74,-1.73 1,1 0 0 1 0,-0.17 1.92,1.92 0 0 1 1.91,-1.91 H 8.7 a 1.9,1.9 0 0 1 1.73,1.74 0.86,0.86 0 0 1 0.01,0.16 z"
       fill="#fec656"
       transform="translate(0,-0.01)"
       id="path1501" />
    <circle
       cx="2.79"
       cy="31.9"
       fill="#96b945"
       r="2.79"
       id="circle1503" />
    <path
       d="M 105.71,15.38 V 21.5"
       fill="none"
       stroke="#58c8e0"
       stroke-linecap="round"
       stroke-linejoin="round"
       stroke-width="2.47"
       id="path1505" />
    <path
       d="m 102.65,18.44 h 6.12"
       fill="none"
       stroke="#58c8e0"
       stroke-linecap="round"
       stroke-linejoin="round"
       stroke-width="2.47"
       id="path1507" />
    <path
       d="M 33.68,9.67 H 39.8"
       fill="none"
       stroke="#f16251"
       stroke-linecap="round"
       stroke-linejoin="round"
       stroke-width="2.47"
       id="path1509" />
    <path
       d="m 36.74,6.61 v 6.12"
       fill="none"
       stroke="#f16251"
       stroke-linecap="round"
       stroke-linejoin="round"
       stroke-width="2.47"
       id="path1511" />
    <circle
       cx="228.42999"
       cy="11.84"
       fill="none"
       r="1.78"
       stroke="#83cbaa"
       stroke-linecap="round"
       stroke-linejoin="round"
       stroke-width="2.47"
       id="circle1513" />
    <path
       d="m 289.34,57.16 h 4.35"
       fill="none"
       stroke="#58c8e0"
       stroke-linecap="round"
       stroke-linejoin="round"
       stroke-width="2.47"
       id="path1515" />
    <path
       d="m 291.51,54.98 v 4.35"
       fill="none"
       stroke="#58c8e0"
       stroke-linecap="round"
       stroke-linejoin="round"
       stroke-width="2.47"
       id="path1517" />
    <path
       d="M 87.25,194.26 C 54.1,181.52 56,157.84 54.73,132.66 a 113.86,113.86 0 0 1 7,-45 C 53.95,62.54 58.73,46.19 61.19,40.24 A 5.6,5.6 0 0 1 65.34,37 c 16,-2.85 40.9,13.66 40.9,13.66 0,0 10.48,-7.66 39.3,-7.66 28.82,0 39.31,7.58 39.31,7.58 0,0 24.94,-16.48 40.9,-13.58 a 5.61,5.61 0 0 1 4.18,3.33 c 2.46,6 7.24,22.3 -0.54,47.42 a 113.86,113.86 0 0 1 7,45 c -1.28,25.18 0.63,48.86 -32.52,61.6 -31.87,12.13 -84.79,12.13 -116.62,-0.09 z"
       fill="#dadbe2"
       transform="translate(0,-0.01)"
       id="path1519" />
    <path
       d="m 208.88,102.25 c -21.26,-16.57 -28.11,5 -63.34,5 -35.23,0 -42.07,-21.62 -63.34,-5 -21.27,16.62 -1.57,40 -5.29,56.22 -3.72,16.22 -4.44,27 19.35,35 23.79,8 40.55,8.29 49.28,8.29 8.73,0 25.5,-0.36 49.29,-8.29 23.79,-7.93 23.06,-18.74 19.34,-35 -3.72,-16.26 15.98,-39.64 -5.29,-56.22 z"
       fill="#5b616c"
       transform="translate(0,-0.01)"
       id="path1521" />
    <path
       d="m 82.2,110.15 c 21.27,-16.58 28.11,5 63.34,5 35.23,0 42.08,-21.62 63.34,-5 6.38,5 9.06,10.56 9.8,16.39 0.94,-8.62 -0.58,-17.1 -9.8,-24.29 -21.26,-16.57 -28.11,5 -63.34,5 -35.23,0 -42.07,-21.62 -63.34,-5 -9.22,7.19 -10.73,15.67 -9.8,24.29 0.75,-5.83 3.42,-11.42 9.8,-16.39 z"
       fill="#45515d"
       transform="translate(0,-0.01)"
       id="path1523" />
    <path
       d="m 145.54,44.58 c -28.82,0 -39.3,7.59 -39.3,7.59 a 6.14,6.14 0 0 1 -7.07,5 h -0.1 C 86.52,44.17 67.31,45.79 67.31,45.79 c -6.43,18.66 1.49,37.34 1.49,37.34 -0.87,6.31 -5.55,6.13 -5.55,6.13 0,0 -8.25,18.22 -7,43.4 0.17,3.24 0.28,6.45 0.42,9.61 4.13,-62.73 55.45,-94.46 83.77,-85.88 18.15,5.49 -7.44,30.06 -7.44,30.06 31.93,-21.53 80.44,-22.16 92.09,19.71 16,57.4 -2.5,76.52 -2.58,76.8 13.68,-13.22 12.85,-31.34 13.81,-50.3 a 113.86,113.86 0 0 0 -7,-45 c -5.08,1.84 -7.34,-6.09 -7.34,-6.09 9.35,-14.48 0.93,-35.48 0.93,-35.48 -13.74,-2.47 -31.55,10.27 -31.55,10.27 -7.05,1.85 -6.58,-4.23 -6.58,-4.23 0,0 -10.42,-7.55 -39.24,-7.55 z"
       fill="#caccd3"
       transform="translate(0,-0.01)"
       id="path1525" />
    <path
       d="m 69.21,167.31 a 69.25,69.25 0 0 0 -8.12,-1 70.94,70.94 0 0 0 -8.12,-0.07 54.41,54.41 0 0 0 -7.93,1 36.47,36.47 0 0 0 -7.33,2.44 h -0.06 a 2.4811792,2.4811792 0 0 1 -2.07,-4.51 l 0.27,-0.11 a 40.74,40.74 0 0 1 8.61,-1.75 60.85,60.85 0 0 1 8.54,0 75.32,75.32 0 0 1 8.33,1.09 73.42,73.42 0 0 1 8.12,2 0.46,0.46 0 0 1 0.3,0.58 0.44,0.44 0 0 1 -0.52,0.32 z"
       fill="#caccd3"
       transform="translate(0,-0.01)"
       id="path1527" />
    <path
       d="m 68.88,172.5 a 68.86,68.86 0 0 0 -8.06,1.37 70.39,70.39 0 0 0 -7.82,2.22 54.69,54.69 0 0 0 -7.32,3.21 36.51,36.51 0 0 0 -6.35,4.4 v 0.05 A 2.5075586,2.5075586 0 0 1 36,180 a 1.08,1.08 0 0 1 0.24,-0.18 40,40 0 0 1 7.76,-4.1 57,57 0 0 1 8.18,-2.45 75,75 0 0 1 8.3,-1.31 72.71,72.71 0 0 1 8.35,-0.39 0.48,0.48 0 0 1 0.4,0.53 0.47,0.47 0 0 1 -0.4,0.4 z"
       fill="#caccd3"
       transform="translate(0,-0.01)"
       id="path1529" />
    <path
       d="m 221.64,166.41 a 72.71,72.71 0 0 1 8.11,-2 78,78 0 0 1 8.34,-1.09 60.71,60.71 0 0 1 8.53,0 40.12,40.12 0 0 1 8.61,1.75 2.48,2.48 0 1 1 -1.31,4.78 l -0.2,-0.06 -0.27,-0.1 h -0.07 a 36.47,36.47 0 0 0 -7.33,-2.44 54.41,54.41 0 0 0 -7.93,-1 70.94,70.94 0 0 0 -8.12,0.07 69.41,69.41 0 0 0 -8.13,1 0.46,0.46 0 0 1 -0.54,-0.36 0.49,0.49 0 0 1 0.31,-0.55 z"
       fill="#caccd3"
       transform="translate(0,-0.01)"
       id="path1531" />
    <path
       d="m 222.23,171.57 a 72.71,72.71 0 0 1 8.35,0.39 75,75 0 0 1 8.3,1.31 57,57 0 0 1 8.18,2.45 40,40 0 0 1 7.76,4.11 2.4893423,2.4893423 0 1 1 -2.72,4.17 h -0.07 a 1.84,1.84 0 0 1 -0.22,-0.17 l -0.07,-0.06 a 36.43,36.43 0 0 0 -6.34,-4.4 54.69,54.69 0 0 0 -7.32,-3.21 75.52,75.52 0 0 0 -7.81,-2.22 68.86,68.86 0 0 0 -8.06,-1.37 0.48,0.48 0 0 1 -0.4,-0.53 0.47,0.47 0 0 1 0.4,-0.4 z"
       fill="#caccd3"
       transform="translate(0,-0.01)"
       id="path1533" />
    <path
       d="m 145.54,208.3 a 208.92,208.92 0 0 1 -26.8,-2 1.86,1.86 0 0 0 -2.11,2 c 1,11.81 6.61,64.34 28.91,64.34 22.3,0 27.94,-52.53 28.92,-64.34 a 1.86,1.86 0 0 0 -1.69,-2 2,2 0 0 0 -0.43,0 208.92,208.92 0 0 1 -26.8,2 z"
       fill="#45515d"
       transform="translate(0,-0.01)"
       id="path1535" />
    <path
       d="m 145.54,211.1 a 228.28,228.28 0 0 1 -30.35,-2.33 0.93,0.93 0 0 0 -1.06,0.78 0.81,0.81 0 0 0 0,0.22 c 0.7,9.28 6.25,71 31.42,71 25.17,0 30.72,-61.77 31.45,-71.01 a 0.92,0.92 0 0 0 -0.82,-1 h -0.24 a 227.5,227.5 0 0 1 -30.4,2.34 z"
       fill="#dadbe2"
       transform="translate(0,-0.01)"
       id="path1537" />
    <path
       d="m 175.9,208.77 a 228.56,228.56 0 0 1 -30.36,2.33 228.28,228.28 0 0 1 -30.35,-2.33 0.93,0.93 0 0 0 -1.06,0.78 0.81,0.81 0 0 0 0,0.22 c 0.16,2.12 0.58,7 1.42,13.26 10.33,-6.47 41.55,-10.49 49.36,2.95 7.81,13.44 -24.46,62.94 -36.51,42.31 4.34,7.45 9.94,12.53 17.15,12.53 25.17,0 30.73,-61.77 31.42,-71 a 0.92,0.92 0 0 0 -0.82,-1 z"
       fill="#caccd3"
       transform="translate(0,-0.01)"
       id="path1539" />
    <ellipse
       cx="145.53999"
       cy="298.82999"
       fill="#dadbe2"
       rx="50.09"
       ry="2.3099999"
       id="ellipse1541" />
    <g
       fill="#64bcea"
       id="g1575">
      <path
         d="m 139.28,165.05 h 7.04 v 7.04 h -7.04 z"
         id="path1543" />
      <path
         d="m 146.86,165.05 h 7.04 v 7.04 h -7.04 z"
         id="path1545" />
      <path
         d="m 120.35,148.2 h 7.04 v 7.04 h -7.04 z"
         id="path1547" />
      <path
         d="m 120.35,140.64 h 7.04 v 7.04 h -7.04 z"
         id="path1549" />
      <path
         d="m 91.16,148.2 h 7.04 v 7.04 h -7.04 z"
         id="path1551" />
      <path
         d="m 91.16,140.64 h 7.04 v 7.04 h -7.04 z"
         id="path1553" />
      <path
         d="m 113.32,133.08 h 7.04 v 7.04 h -7.04 z"
         id="path1555" />
      <path
         d="m 105.76,133.08 h 7.04 v 7.04 h -7.04 z"
         id="path1557" />
      <path
         d="m 98.2,133.08 h 7.04 v 7.04 H 98.2 Z"
         id="path1559" />
      <path
         d="m 193.41,148.2 h 7.04 v 7.04 h -7.04 z"
         id="path1561" />
      <path
         d="m 193.41,140.64 h 7.04 v 7.04 h -7.04 z"
         id="path1563" />
      <path
         d="m 164.22,148.2 h 7.04 v 7.04 h -7.04 z"
         id="path1565" />
      <path
         d="m 164.22,140.64 h 7.04 v 7.04 h -7.04 z"
         id="path1567" />
      <path
         d="m 186.38,133.08 h 7.04 v 7.04 h -7.04 z"
         id="path1569" />
      <path
         d="m 178.82,133.08 h 7.04 v 7.04 h -7.04 z"
         id="path1571" />
      <path
         d="m 171.26,133.08 h 7.04 v 7.04 h -7.04 z"
         id="path1573" />
    </g>
  </g>
</svg>
